<svg id="svg" version="1.1" xmlns="http://www.w3.org/2000/svg" xmlns:xlink="http://www.w3.org/1999/xlink" width="400" height="300" viewBox="0, 0, 400,300"><g id="svgg"><path id="path0" d="M195.500 50.201 C 117.876 53.917,73.864 140.830,116.908 205.400 C 159.334 269.042,255.166 263.096,289.350 194.700 C 323.328 126.715,271.277 46.573,195.500 50.201 M200.832 92.882 C 208.898 94.434,213.279 103.081,209.795 110.567 C 208.910 112.467,209.098 112.691,211.422 112.509 C 214.889 112.238,216.928 114.668,217.200 119.397 C 217.359 122.168,217.645 122.800,218.735 122.800 C 220.286 122.800,218.182 123.961,216.315 124.135 C 214.765 124.280,212.854 123.748,211.204 122.714 C 210.601 122.335,210.077 122.056,210.040 122.094 C 209.900 122.233,210.781 123.719,211.281 124.185 C 212.115 124.964,211.882 125.080,210.771 124.439 C 207.390 122.487,206.110 119.596,207.214 116.405 C 207.874 114.497,207.542 114.346,205.881 115.800 C 205.252 116.350,204.649 116.800,204.541 116.800 C 204.179 116.800,204.553 118.920,205.110 120.023 C 205.877 121.541,206.664 122.643,208.076 124.176 C 208.749 124.907,209.510 125.742,209.766 126.032 L 210.232 126.559 204.366 131.000 L 198.500 135.440 198.365 134.570 C 198.290 134.091,198.223 133.322,198.215 132.860 C 198.181 130.936,196.908 127.819,194.935 124.828 L 193.700 122.956 191.700 123.068 C 190.600 123.129,189.258 123.319,188.718 123.490 C 185.840 124.400,184.177 123.466,184.351 121.038 C 184.439 119.800,184.404 119.635,183.924 119.065 C 183.293 118.315,183.288 118.246,183.810 117.690 L 184.219 117.254 183.607 117.131 C 182.706 116.951,182.416 116.197,182.974 115.487 C 183.837 114.390,183.585 113.759,182.000 113.055 C 180.102 112.212,180.081 111.769,181.850 109.854 C 182.538 109.109,183.276 108.293,183.490 108.040 L 183.881 107.579 183.296 107.113 L 182.711 106.646 183.505 106.673 L 184.300 106.700 184.241 104.573 C 184.184 102.562,184.219 102.342,184.877 100.573 C 185.260 99.543,185.631 98.340,185.701 97.900 C 185.852 96.957,188.129 94.550,189.562 93.819 C 191.671 92.743,197.564 92.253,200.832 92.882 M197.955 96.111 C 191.119 97.768,188.719 106.076,193.638 111.056 C 198.313 115.789,206.267 113.919,208.407 107.583 C 210.589 101.122,204.564 94.509,197.955 96.111 M201.546 101.687 C 201.737 101.844,199.292 108.202,199.043 108.197 C 198.248 108.180,198.549 106.792,200.425 101.837 C 200.579 101.431,201.142 101.356,201.546 101.687 M197.000 102.472 C 197.000 103.333,196.985 103.352,195.807 103.980 C 194.231 104.820,194.232 104.808,195.714 105.607 C 196.987 106.293,196.999 106.309,197.000 107.157 L 197.000 108.013 194.750 106.857 L 192.500 105.700 192.439 104.865 L 192.378 104.030 194.639 102.818 C 195.883 102.152,196.923 101.605,196.950 101.604 C 196.978 101.602,197.000 101.992,197.000 102.472 M207.159 104.841 L 207.218 105.700 204.909 106.849 L 202.600 107.998 202.600 107.102 L 202.600 106.206 203.935 105.532 L 205.271 104.859 203.935 104.112 L 202.600 103.366 202.600 102.474 L 202.600 101.582 204.850 102.782 L 207.100 103.981 207.159 104.841 M186.600 163.158 L 186.700 177.216 199.500 163.588 C 206.540 156.093,212.506 149.745,212.758 149.480 L 213.216 149.000 219.425 149.000 C 222.839 149.000,225.603 149.078,225.567 149.172 C 225.530 149.267,220.338 154.960,214.029 161.822 C 207.720 168.685,202.516 174.403,202.465 174.530 C 202.414 174.656,207.085 181.271,212.844 189.230 L 223.316 203.700 227.358 203.754 L 231.400 203.808 231.400 205.604 L 231.400 207.400 222.828 207.400 L 214.257 207.400 204.695 194.791 C 199.436 187.856,195.076 182.147,195.006 182.104 C 194.936 182.061,193.021 184.022,190.749 186.463 L 186.619 190.900 186.610 199.150 L 186.600 207.400 177.600 207.400 L 168.600 207.400 168.600 205.600 L 168.600 203.800 172.600 203.800 L 176.600 203.800 176.600 176.397 L 176.600 148.993 181.550 149.047 L 186.500 149.100 186.600 163.158 " stroke="none" fill="#bb83eb" fill-rule="evenodd"></path><path id="path1" d="M0.000 150.000 L 0.000 300.000 200.000 300.000 L 400.000 300.000 400.000 150.000 L 400.000 0.000 200.000 0.000 L 0.000 0.000 0.000 150.000 M210.578 50.488 C 261.848 56.291,300.000 98.748,300.000 150.000 C 300.000 210.387,246.783 257.100,187.000 249.190 C 131.325 241.824,92.688 190.360,101.120 134.800 C 108.086 88.897,145.522 54.205,192.400 50.210 C 195.679 49.931,207.213 50.107,210.578 50.488 M192.353 93.105 C 189.406 93.658,185.800 96.362,185.800 98.017 C 185.800 98.405,185.474 99.527,185.077 100.511 C 184.366 102.269,184.356 102.334,184.486 104.246 C 184.625 106.306,184.464 106.998,183.843 107.003 C 183.562 107.006,183.552 107.039,183.784 107.186 C 184.161 107.424,183.804 107.968,181.980 109.936 C 180.145 111.915,180.161 112.037,182.387 113.096 L 183.640 113.693 183.537 114.462 C 183.480 114.885,183.283 115.397,183.099 115.601 C 182.489 116.275,182.855 116.840,184.067 117.096 L 184.634 117.216 184.117 117.623 C 183.471 118.130,183.472 118.290,184.124 119.065 C 184.615 119.649,184.639 119.774,184.519 121.104 C 184.312 123.392,185.810 124.145,188.900 123.305 C 189.560 123.125,190.913 122.926,191.908 122.862 L 193.715 122.746 194.942 124.563 C 197.156 127.839,198.193 130.495,198.379 133.364 L 198.500 135.229 204.250 130.913 C 207.413 128.539,210.000 126.546,210.000 126.484 C 210.000 126.422,209.288 125.627,208.417 124.718 C 204.641 120.775,203.363 117.554,205.058 116.254 C 205.521 115.898,206.197 115.366,206.560 115.071 C 207.619 114.208,207.999 114.744,207.422 116.287 C 206.268 119.371,207.628 122.684,210.687 124.244 L 211.474 124.646 210.907 123.973 C 210.317 123.274,209.706 122.027,209.872 121.862 C 209.924 121.809,210.570 122.131,211.307 122.575 C 213.821 124.091,216.374 124.430,218.287 123.501 L 219.075 123.119 218.440 122.954 C 217.506 122.712,217.232 121.987,217.025 119.212 C 216.699 114.844,214.437 112.057,211.692 112.642 C 209.590 113.090,208.885 112.583,209.485 111.056 C 210.683 108.010,210.790 107.545,210.795 105.360 C 210.808 99.898,207.565 95.158,202.654 93.463 C 200.713 92.794,195.060 92.597,192.353 93.105 M203.652 96.546 C 209.553 99.318,210.842 106.856,206.176 111.307 C 200.807 116.428,192.021 113.340,190.997 105.973 C 190.032 99.026,197.341 93.581,203.652 96.546 M200.600 101.676 C 200.600 101.718,200.105 103.164,199.500 104.890 C 198.449 107.891,198.420 108.025,198.844 107.964 C 199.221 107.909,199.443 107.456,200.337 104.900 C 201.552 101.430,201.518 101.600,201.000 101.600 C 200.780 101.600,200.600 101.634,200.600 101.676 M194.641 102.964 L 192.582 104.098 192.641 104.865 C 192.699 105.618,192.738 105.652,194.750 106.732 L 196.800 107.832 196.800 107.059 C 196.800 106.306,196.765 106.269,195.500 105.645 C 193.903 104.857,193.903 104.860,195.500 104.000 C 196.744 103.330,196.799 103.268,196.800 102.550 C 196.800 102.138,196.778 101.807,196.750 101.815 C 196.722 101.823,195.773 102.341,194.641 102.964 M202.600 102.492 C 202.600 103.138,202.689 103.248,203.619 103.750 C 205.621 104.830,205.614 104.800,204.012 105.666 C 202.684 106.383,202.600 106.469,202.600 107.116 L 202.600 107.803 204.800 106.700 L 207.000 105.597 207.000 104.815 L 207.000 104.034 204.800 102.909 L 202.600 101.784 202.600 102.492 M176.800 176.500 L 176.800 203.800 172.700 203.800 L 168.600 203.800 168.600 205.500 L 168.600 207.200 177.500 207.200 L 186.400 207.200 186.400 199.088 L 186.400 190.976 190.636 186.398 C 192.966 183.881,194.945 181.866,195.034 181.921 C 195.122 181.976,199.489 187.686,204.736 194.610 L 214.278 207.200 222.839 207.200 L 231.400 207.200 231.400 205.504 L 231.400 203.808 227.271 203.754 L 223.142 203.700 212.671 189.227 C 206.912 181.267,202.200 174.697,202.201 174.627 C 202.201 174.525,213.083 162.613,223.647 151.150 L 225.444 149.200 219.272 149.214 L 213.100 149.227 199.800 163.430 L 186.500 177.632 186.449 163.416 L 186.397 149.200 181.599 149.200 L 176.800 149.200 176.800 176.500 " stroke="none" fill="#8c3c7c" fill-rule="evenodd"></path><path id="path2" d="M195.250 50.138 C 195.442 50.188,195.758 50.188,195.950 50.138 C 196.143 50.088,195.985 50.046,195.600 50.046 C 195.215 50.046,195.058 50.088,195.250 50.138 M204.050 50.138 C 204.243 50.188,204.558 50.188,204.750 50.138 C 204.943 50.088,204.785 50.046,204.400 50.046 C 204.015 50.046,203.858 50.088,204.050 50.138 M129.196 79.350 L 127.500 81.100 129.250 79.404 C 130.213 78.472,131.000 77.684,131.000 77.654 C 131.000 77.509,130.770 77.725,129.196 79.350 M269.200 77.855 C 269.200 77.885,269.897 78.583,270.750 79.405 L 272.300 80.900 270.805 79.350 C 269.416 77.910,269.200 77.709,269.200 77.855 M195.250 92.738 C 195.442 92.788,195.758 92.788,195.950 92.738 C 196.143 92.688,195.985 92.646,195.600 92.646 C 195.215 92.646,195.058 92.688,195.250 92.738 M196.850 92.743 C 197.153 92.789,197.648 92.789,197.950 92.743 C 198.253 92.697,198.005 92.660,197.400 92.660 C 196.795 92.660,196.548 92.697,196.850 92.743 M196.850 102.500 C 196.853 102.940,196.894 103.096,196.941 102.848 C 196.989 102.599,196.987 102.239,196.937 102.048 C 196.887 101.856,196.848 102.060,196.850 102.500 M207.054 104.800 C 207.054 105.295,207.093 105.498,207.141 105.250 C 207.189 105.003,207.189 104.597,207.141 104.350 C 207.093 104.103,207.054 104.305,207.054 104.800 M196.850 107.100 C 196.853 107.540,196.894 107.696,196.941 107.448 C 196.989 107.199,196.987 106.839,196.937 106.648 C 196.887 106.456,196.848 106.660,196.850 107.100 M214.172 207.252 C 214.256 207.336,218.189 207.381,222.912 207.352 L 231.500 207.300 222.760 207.200 C 217.953 207.145,214.088 207.168,214.172 207.252 M173.064 207.350 C 175.574 207.382,179.624 207.382,182.064 207.350 C 184.504 207.318,182.450 207.292,177.500 207.292 C 172.550 207.292,170.554 207.318,173.064 207.350 M129.100 220.600 C 129.864 221.370,130.534 222.000,130.589 222.000 C 130.644 222.000,130.064 221.370,129.300 220.600 C 128.536 219.830,127.866 219.200,127.811 219.200 C 127.756 219.200,128.336 219.830,129.100 220.600 M270.600 220.700 C 269.781 221.525,269.155 222.200,269.210 222.200 C 269.265 222.200,269.981 221.525,270.800 220.700 C 271.619 219.875,272.245 219.200,272.190 219.200 C 272.135 219.200,271.419 219.875,270.600 220.700 M195.352 249.941 C 195.601 249.989,195.961 249.987,196.152 249.937 C 196.344 249.887,196.140 249.848,195.700 249.850 C 195.260 249.853,195.104 249.894,195.352 249.941 M203.850 249.938 C 204.043 249.988,204.358 249.988,204.550 249.938 C 204.743 249.888,204.585 249.846,204.200 249.846 C 203.815 249.846,203.658 249.888,203.850 249.938 " stroke="none" fill="#9c54a4" fill-rule="evenodd"></path><path id="path3" d="M268.000 76.663 C 268.000 76.697,268.293 76.990,268.650 77.313 L 269.300 77.900 268.713 77.250 C 268.165 76.644,268.000 76.508,268.000 76.663 M184.250 103.100 C 184.253 103.540,184.294 103.696,184.341 103.448 C 184.389 103.199,184.387 102.839,184.337 102.648 C 184.287 102.456,184.248 102.660,184.250 103.100 M190.846 104.600 C 190.846 104.985,190.888 105.142,190.938 104.950 C 190.988 104.758,190.988 104.442,190.938 104.250 C 190.888 104.058,190.846 104.215,190.846 104.600 M210.857 105.300 C 210.859 105.850,210.898 106.051,210.944 105.747 C 210.989 105.443,210.988 104.993,210.941 104.747 C 210.893 104.501,210.856 104.750,210.857 105.300 M217.050 119.700 C 217.053 120.140,217.094 120.296,217.141 120.048 C 217.189 119.799,217.187 119.439,217.137 119.248 C 217.087 119.056,217.048 119.260,217.050 119.700 M176.697 176.500 C 176.697 191.570,176.721 197.705,176.750 190.134 C 176.779 182.563,176.779 170.233,176.750 162.734 C 176.721 155.235,176.697 161.430,176.697 176.500 M203.087 159.850 L 202.500 160.500 203.150 159.913 C 203.508 159.590,203.800 159.297,203.800 159.263 C 203.800 159.108,203.635 159.244,203.087 159.850 M190.887 172.850 L 190.300 173.500 190.950 172.913 C 191.308 172.590,191.600 172.297,191.600 172.263 C 191.600 172.108,191.435 172.244,190.887 172.850 M130.600 222.063 C 130.600 222.097,130.893 222.390,131.250 222.713 L 131.900 223.300 131.313 222.650 C 130.765 222.044,130.600 221.908,130.600 222.063 " stroke="none" fill="#944890" fill-rule="evenodd"></path><path id="path4" d="M196.750 50.145 C 197.108 50.189,197.692 50.189,198.050 50.145 C 198.408 50.100,198.115 50.064,197.400 50.064 C 196.685 50.064,196.393 50.100,196.750 50.145 M201.950 50.145 C 202.308 50.189,202.893 50.189,203.250 50.145 C 203.608 50.100,203.315 50.064,202.600 50.064 C 201.885 50.064,201.593 50.100,201.950 50.145 M198.752 92.741 C 199.001 92.789,199.361 92.787,199.552 92.737 C 199.744 92.687,199.540 92.648,199.100 92.650 C 198.660 92.653,198.504 92.694,198.752 92.741 M207.000 96.100 C 207.373 96.485,207.723 96.800,207.778 96.800 C 207.833 96.800,207.573 96.485,207.200 96.100 C 206.827 95.715,206.477 95.400,206.422 95.400 C 206.367 95.400,206.627 95.715,207.000 96.100 M206.200 98.500 C 206.573 98.885,206.923 99.200,206.978 99.200 C 207.033 99.200,206.773 98.885,206.400 98.500 C 206.027 98.115,205.677 97.800,205.622 97.800 C 205.567 97.800,205.827 98.115,206.200 98.500 M192.480 104.081 C 192.420 104.235,192.403 104.663,192.442 105.031 C 192.503 105.618,192.523 105.583,192.607 104.750 C 192.705 103.776,192.669 103.587,192.480 104.081 M208.860 104.800 C 208.860 105.405,208.897 105.653,208.943 105.350 C 208.989 105.047,208.989 104.553,208.943 104.250 C 208.897 103.947,208.860 104.195,208.860 104.800 M181.589 110.150 L 180.900 110.900 181.650 110.211 C 182.348 109.569,182.492 109.400,182.339 109.400 C 182.306 109.400,181.968 109.738,181.589 110.150 M206.189 111.150 L 205.500 111.900 206.250 111.211 C 206.948 110.569,207.092 110.400,206.939 110.400 C 206.906 110.400,206.568 110.738,206.189 111.150 M210.050 112.738 C 210.243 112.788,210.558 112.788,210.750 112.738 C 210.943 112.688,210.785 112.646,210.400 112.646 C 210.015 112.646,209.857 112.688,210.050 112.738 M192.350 122.941 C 192.597 122.989,193.003 122.989,193.250 122.941 C 193.498 122.893,193.295 122.854,192.800 122.854 C 192.305 122.854,192.103 122.893,192.350 122.941 M211.152 124.218 C 211.286 124.394,211.330 124.610,211.248 124.700 C 211.167 124.790,211.205 124.804,211.333 124.731 C 211.461 124.657,211.611 124.711,211.667 124.849 C 211.725 124.992,211.775 125.006,211.784 124.881 C 211.793 124.761,211.599 124.491,211.353 124.281 C 211.080 124.048,211.002 124.023,211.152 124.218 M215.154 124.145 C 215.513 124.189,216.053 124.189,216.354 124.143 C 216.654 124.097,216.360 124.061,215.700 124.062 C 215.040 124.063,214.794 124.100,215.154 124.145 M208.600 124.900 C 208.973 125.285,209.323 125.600,209.378 125.600 C 209.433 125.600,209.173 125.285,208.800 124.900 C 208.427 124.515,208.077 124.200,208.022 124.200 C 207.967 124.200,208.227 124.515,208.600 124.900 M198.250 133.300 C 198.253 133.740,198.294 133.896,198.341 133.648 C 198.389 133.399,198.387 133.039,198.337 132.848 C 198.287 132.656,198.248 132.860,198.250 133.300 M100.246 143.000 C 100.246 143.385,100.288 143.542,100.338 143.350 C 100.388 143.157,100.388 142.843,100.338 142.650 C 100.288 142.458,100.246 142.615,100.246 143.000 M100.067 147.600 C 100.067 148.425,100.103 148.763,100.146 148.350 C 100.189 147.938,100.189 147.263,100.146 146.850 C 100.103 146.438,100.067 146.775,100.067 147.600 M299.867 147.600 C 299.867 148.425,299.903 148.763,299.946 148.350 C 299.989 147.938,299.989 147.263,299.946 146.850 C 299.903 146.438,299.867 146.775,299.867 147.600 M181.499 149.148 L 186.397 149.207 186.451 163.304 L 186.504 177.400 186.502 163.250 L 186.500 149.100 181.550 149.095 L 176.600 149.089 181.499 149.148 M219.272 149.150 C 225.097 149.203,225.429 149.225,225.172 149.553 C 224.926 149.867,224.933 149.874,225.250 149.626 C 225.981 149.053,225.456 149.001,219.350 149.047 L 213.100 149.094 219.272 149.150 M100.067 152.400 C 100.067 153.225,100.103 153.563,100.146 153.150 C 100.189 152.738,100.189 152.063,100.146 151.650 C 100.103 151.238,100.067 151.575,100.067 152.400 M299.867 152.400 C 299.867 153.225,299.903 153.563,299.946 153.150 C 299.989 152.738,299.989 152.063,299.946 151.650 C 299.903 151.238,299.867 151.575,299.867 152.400 M210.287 152.050 L 209.700 152.700 210.350 152.113 C 210.956 151.565,211.092 151.400,210.937 151.400 C 210.903 151.400,210.610 151.692,210.287 152.050 M207.287 155.250 L 206.700 155.900 207.350 155.313 C 207.956 154.765,208.092 154.600,207.937 154.600 C 207.903 154.600,207.610 154.893,207.287 155.250 M204.189 158.550 L 203.500 159.300 204.250 158.611 C 204.948 157.969,205.092 157.800,204.939 157.800 C 204.906 157.800,204.568 158.138,204.189 158.550 M201.087 161.850 L 200.500 162.500 201.150 161.913 C 201.508 161.590,201.800 161.297,201.800 161.263 C 201.800 161.108,201.635 161.244,201.087 161.850 M198.087 165.050 L 197.500 165.700 198.150 165.113 C 198.508 164.790,198.800 164.497,198.800 164.463 C 198.800 164.308,198.635 164.444,198.087 165.050 M195.087 168.250 L 194.500 168.900 195.150 168.313 C 195.508 167.990,195.800 167.697,195.800 167.663 C 195.800 167.508,195.635 167.644,195.087 168.250 M191.989 171.550 L 191.300 172.300 192.050 171.611 C 192.463 171.232,192.800 170.894,192.800 170.861 C 192.800 170.708,192.631 170.852,191.989 171.550 M188.887 174.850 L 188.300 175.500 188.950 174.913 C 189.308 174.590,189.600 174.297,189.600 174.263 C 189.600 174.108,189.435 174.244,188.887 174.850 M193.087 183.850 L 192.500 184.500 193.150 183.913 C 193.508 183.590,193.800 183.297,193.800 183.263 C 193.800 183.108,193.635 183.244,193.087 183.850 M186.491 199.200 C 186.491 203.765,186.518 205.633,186.550 203.350 C 186.582 201.068,186.582 197.333,186.550 195.050 C 186.518 192.768,186.491 194.635,186.491 199.200 M196.954 249.945 C 197.313 249.989,197.853 249.989,198.154 249.943 C 198.454 249.897,198.160 249.861,197.500 249.862 C 196.840 249.863,196.594 249.900,196.954 249.945 M201.954 249.945 C 202.313 249.989,202.853 249.989,203.154 249.943 C 203.454 249.897,203.160 249.861,202.500 249.862 C 201.840 249.863,201.594 249.900,201.954 249.945 " stroke="none" fill="#a464bc" fill-rule="evenodd"></path></g></svg>